<svg width="113" height="113" viewBox="0 0 113 113" fill="none" xmlns="http://www.w3.org/2000/svg">
<path d="M7.35181 28.2582L28.2707 7.33929C24.5569 9.4615 21.1082 12.0006 17.9881 14.8807L14.8932 17.9756C12.0131 21.0958 9.47401 24.5443 7.35181 28.2582Z" fill="#0B315E"/>
<path d="M1.11157 44.8821L44.8948 1.09897C43.6821 1.33898 42.4946 1.62952 41.3072 1.94533L1.95791 41.2946C1.6421 42.482 1.35158 43.6695 1.11157 44.8821Z" fill="#0B315E"/>
<path d="M0 56.0111C0 56.1248 0 56.2512 0 56.3648L56.3775 0C56.2638 0 56.1375 0 56.0238 0C55.2027 0 54.3942 0.0252643 53.5984 0.0505287L0.0631455 53.5858C0.025249 54.3942 0 55.2027 0 56.0111Z" fill="#0B315E"/>
<path d="M0.871471 65.8895L65.8894 0.871613C65.1062 0.732659 64.3103 0.606337 63.5272 0.50528L0.505127 63.5273C0.606184 64.3105 0.732517 65.1063 0.871471 65.8895Z" fill="#0B315E"/>
<path d="M2.99365 74.1383L74.1382 2.99382C73.456 2.75381 72.7612 2.53906 72.0665 2.33694L2.33679 72.0667C2.55154 72.7614 2.76627 73.4562 2.99365 74.1383Z" fill="#0B315E"/>
<path d="M6.08869 81.4271L81.4397 6.07609C80.8334 5.77291 80.2144 5.46974 79.5954 5.1792L5.19177 79.5828C5.48231 80.2018 5.77288 80.8208 6.08869 81.4271Z" fill="#0B315E"/>
<path d="M9.97937 87.9201L87.9326 9.9668C87.3894 9.58783 86.8463 9.2215 86.2905 8.8678L8.88037 86.2779C9.23407 86.8337 9.6004 87.3769 9.97937 87.9201Z" fill="#0B315E"/>
<path d="M14.5775 93.7056L93.7055 14.5775C93.2255 14.148 92.7455 13.7185 92.2528 13.3017L13.3016 92.2529C13.7185 92.7329 14.148 93.2256 14.5775 93.7056Z" fill="#0B315E"/>
<path d="M19.8703 98.7964L98.8089 19.8578C98.3921 19.3651 97.9626 18.8725 97.5331 18.3925L18.405 97.5205C18.8851 97.95 19.365 98.3795 19.8703 98.7964Z" fill="#0B315E"/>
<path d="M25.8327 103.205L103.218 25.8202C102.864 25.2643 102.498 24.7212 102.119 24.178L24.1906 102.119C24.7337 102.485 25.2769 102.851 25.8327 103.205Z" fill="#0B315E"/>
<path d="M32.5405 106.881L106.881 32.5405C106.59 31.9215 106.3 31.3025 105.984 30.6962L30.6836 105.997C31.3026 106.3 31.9215 106.59 32.5405 106.881Z" fill="#0B315E"/>
<path d="M40.0819 109.723L109.736 40.0693C109.534 39.3745 109.306 38.6798 109.079 37.9976L38.0103 109.066C38.6924 109.306 39.3871 109.521 40.0819 109.723Z" fill="#0B315E"/>
<path d="M48.6464 111.542L111.555 48.634C111.454 47.8382 111.327 47.0423 111.188 46.2591L46.2716 111.176C47.0548 111.315 47.8506 111.441 48.6464 111.542Z" fill="#0B315E"/>
<path d="M56.0237 112.035C56.8953 112.035 57.7543 112.01 58.6007 111.972L111.972 58.6007C112.01 57.7417 112.035 56.8827 112.035 56.0237C112.035 55.9479 112.035 55.8848 112.035 55.809L55.809 112.035C55.8721 112.022 55.9479 112.035 56.0237 112.035Z" fill="#0B315E"/>
<path d="M70.9297 110.014L110.026 70.9171C110.355 69.7297 110.645 68.5296 110.898 67.317L67.3295 110.885C68.5422 110.633 69.7422 110.342 70.9297 110.014Z" fill="#0B315E"/>
<path d="M104.481 84.1051L84.105 104.481C92.5433 99.5796 99.5794 92.5434 104.481 84.1051Z" fill="#0B315E"/>
</svg>
